<?xml version="1.0" encoding="UTF-8"?>
<svg version="1.1" viewBox="0 0 2000 2000" width="500" height="500" xmlns="http://www.w3.org/2000/svg">
<path transform="translate(0)" d="m0 0h2e3v2e3h-2e3z" fill="#5854EE"/>
<path transform="translate(570,1043)" d="m0 0h165l46 1 20 2 9 2 26 6 16 6 20 10 13 8 12 8v2l4 2 15 14 5 6 3 3 1 3 5 5 2 3v3h2l6 10 1 6h2l4 9 7 18 3 14 2 6 1 11 2 13v244l-4 26-4 15-4 13-8 16-9 16-10 14-11 12-5 6-8 7-16 12-21 12-17 7-7 3-25 6-15 3-22 2h-206l-1-18v-555z" fill="#FDFDFC"/>
<path transform="translate(690,211)" d="m0 0h12l14 5 11 7 7 8 5 10 2 13v70l-1 11-3 9-5 8-4 5-6 4h-2v2h50l28 1 23 3 16 4 13 3 12 4v2l5 1 19 9 6 3 4 3 4 2v2l5 2 5 3v2l4 2 13 11 6 7 3 3v2l3 1 1 4h2l1 4h2v3h2l9 15 8 18 3 10 5 15 2 14 2 8v49l-3 19-4 16-3 9-4 8-9 19-6 10-1 2h-2l-2 4-8 10-5 6h-2v2h-2v2l-8 7-7 6-19 13-19 10-16 6-21 7-25 4-13 2-83 1h-21l1 13v121l-1 78h-120l-1-18v-478h-32l-11-4-6-4-5-4-7-11-5-13-5-23-1-8v-23l4-26 5-13 6-11 10-10 12-6 12-3 15-1h25l47-1 25-1v-8l-5-2-1-4 4-6 7-9 10-17 4-2 2-4 8-9 8-6h2l1-7-9-2z" fill="#FDFDFC"/>
<path transform="translate(1064,1043)" d="m0 0h359l1 1v102l-225 1-17 1v101l1 27 28 1 185 1 1 1v65l-1 36-214 1v143l8 1 215 1v41l-2 8-6 12-9 10-11 7-11 4-7 1h-82l-9 1-11 6-9 8-3 4-149 1h-31l-2-2v-582z" fill="#FDFDFC"/>
<path transform="translate(1085,363)" d="m0 0h33l19 1 4 6 3 7 6 16 4 8 4 11 4 8 4 10 5 12 5 13 4 8 4 11 6 13 4 11 6 13 4 11 5 12 5 11 4 12v3h2l5 17 2 5 4 13 9 32 2 13 6-25 2-6 1-7 2-5 2-10 2-6 7-22 3-7 3-9 8-20 5-11 5-14 5-11 5-14 4-9 5-13 4-10 1-3h2l1-5 5-15h2l1-5 5-13 10-25 5-10 1-1 38-1h52l34 1-1 4-9 19-9 21-4 8-3 7-18 40-16 36-13 29-3 8-6 12-5 13-4 7-3 7-18 40-6 15-6 12-3 7-9 20-3 7-11 24-3 7-5 11-3 7-5 13-1 3-1 207h-121l-1-210-9-21-48-108-13-29-4-9-18-40-16-36-6-12-5-13-7-14-5-13-15-33-4-9-11-24-4-10v-3z" fill="#FDFDFC"/>
<path transform="translate(691,1156)" d="m0 0h75l17 2 15 4 7 3v2l5 1v2l4 1v2l4 2 5 5 7 8 6 11 4 11 2 13v214l-1 20-3 11-6 13h-2v3h-2l-1 4-9 9h-2l-1 3h-3v2l-14 7-8 3-18 4h-81l-1-1v-358z" fill="#5854EE"/>
<path transform="translate(690,211)" d="m0 0h12l14 5 11 7 7 8 5 10 2 13v70h-1l-1-44-1-16-9 19-11 12-5 5-8 11h-2l-2 4-6 9-5 5-11 15-10 11-6 8-5 3-36 1-12 2-10 4-9 7-8 9-6 11-2 8-2 38-2 4 1 2h-32l-11-4-6-4-5-4-7-11-5-13-5-23-1-8v-23l4-26 5-13 6-11 10-10 12-6 12-3 15-1h25l47-1 25-1v-8l-5-2-1-4 4-6 7-9 10-17 4-2 2-4 8-9 8-6h2l1-7-9-2z" fill="#E2E1F9"/>
<path transform="translate(750,472)" d="m0 0h21l27 2 15 5 11 7 3 1 1 2 3 1 5 5 3 5 3 2 6 11 5 10 3 17v19l-2 14-6 14-4 8h-2l-1 4-8 8-5 4h-2v2h-3v2l-7 3-16 6-20 3h-59l-28-1v-153z" fill="#5854EE"/>
<path transform="translate(1467,1551)" d="m0 0 3 3 5 15 4 18 1 7v27l-4 19-3 9-8 16-8 10-8 5-9 3h-122l1 8 77 1v35l-3 9-6 9-9 8-16 8-11 3-21 4h-26l-24-5-18-7-11-8-6-7-4-11-1-11 4-4 12-6 12-10 4-2 4-4 10-7h2l1-3 16-10 13-9 7-4 11-9 5-3 6-4 10-8h2v-2h3l2-4h2v-2h2v-2h2v-2l4-1 1-3 5-4h2l2-4 8-6 12-8h3l1-3 16-7 11-8 5-3 8-6 1-2 8-4h3l2-4z" fill="#A29FF2"/>
<path transform="translate(662,283)" d="m0 0h1v8l-1 1-25 2-3 4h-2l-1 7-14 13-9 9-6 7-6 8-5 7-3 2-2 5-9 11-8 11-8 8-12 16-9 9-7 10-6 5-2 2-7-3-9-7-2 1-5-20-2-14v-23l4-26 5-13 6-11 10-10 12-6 12-3 15-1h25l47-1 25-1z" fill="#A29FF2"/>
<path transform="translate(1350,1693)" d="m0 0h46v34l-3 9-6 9-9 8-16 8-11 3-21 4h-26l-24-5-18-7-10-7v-2h11l12-3 3-1 1-3 5-3 3-3 8-6 9-7 11-9 11-7h2l2-5 7-5z" fill="#E2E1F9"/>
<path transform="translate(646,208)" d="m0 0h32l19 2v1l-6 1 10 4-1 7-6 4-13 13-6 7-5 9-7 11-6 7-1 6 6 2v1l-62-1-15-1-1-1v-31l2-11 3-7 6-8 9-6 14-5 20-3z" fill="#A29FF2"/>
<path transform="translate(1477,1593)" d="m0 0 2 2v32l-3 13-3 9-8 16-8 10-8 5-4 2h-49l-29-1 4-6 12-8 7-4 12-10 7-5h2v-2l11-9h2v-2l5-2v-2l24-16 16-10 4-5 3-3z" fill="#E2E1F9"/>
<path transform="translate(1391,1693)" d="m0 0h5v34l-3 9-6 9-9 8-16 8-11 3-21 4h-26l-11-2 2-5 13-5 9-6 4-5 13-10 7-9 5-2 2 7 5 8 6 2 9-1 5-3 3-6-1-9-1-4-4-2-1-3-3-1 2-4 10-3 5-5 4-6z" fill="#FBFBFC"/>
<path transform="translate(1474,1635)" d="m0 0h1l-1 9-3 10-8 14-8 9-9 4h-25l-1-4 1-2 11-6 11-7 8-7h2l1-3 10-8 7-7z" fill="#FCFCFC"/>
<path transform="translate(614,232)" d="m0 0h8l8 7 2 3v9l-4 7-7 4h-8l-7-5-4-8 2-9 8-7z" fill="#5854EE"/>
<path transform="translate(1357,1713)" d="m0 0h12l6 7 2 5v6l-5 8-8 3-9-1-5-5-3-5 1-9 4-6z" fill="#5A56EE"/>
<path transform="translate(1382,363)" d="m0 0h52l25 1v1l-113 1-4 3 2-5z" fill="#CFCDF7"/>
</svg>
